<?xml version="1.0" encoding="UTF-8"?>
<svg version="1.1" xmlns="http://www.w3.org/2000/svg" width="1024" height="1024">
<path d="M0 0 C14.46796577 12.1241127 28.94700795 27.60784681 32 47 C34.14815091 78.20101161 16.37465206 108.91839719 -2 133 C-2.4626123 133.61665527 -2.92522461 134.23331055 -3.40185547 134.86865234 C-10.07447734 143.74890062 -17.29369692 152.00570054 -25 160 C-25.53415527 160.55606934 -26.06831055 161.11213867 -26.61865234 161.68505859 C-33.67631369 168.99440475 -40.90462437 175.82893497 -49 182 C-49.52142578 182.4031543 -50.04285156 182.80630859 -50.58007812 183.22167969 C-66.44507287 195.40607058 -83.4217859 204.93337433 -104 203 C-111.59512219 201.35473511 -118.08345334 197.0140901 -123 191 C-124.33302668 186.66605336 -124.33302668 186.66605336 -123 184 C-121.06090542 183.37438997 -119.09695485 182.82520826 -117.125 182.3125 C-85.64430133 172.9060535 -62.57504064 135.91946012 -47 109 C-46.56703613 108.2589502 -46.13407227 107.51790039 -45.68798828 106.75439453 C-36.63831808 91.19679291 -29.21178469 75.24549894 -24 58 C-23.76539063 57.28070313 -23.53078125 56.56140625 -23.2890625 55.8203125 C-20.09645076 45.03946416 -19.51291141 32.72509942 -24.75 22.625 C-28.10357727 18.71249319 -31.38787967 17.21663431 -36.48828125 16.53125 C-75.16848316 16.21517072 -110.72490108 45.35464776 -137.859375 70.08203125 C-139.59802166 71.63983327 -141.35892709 73.11407777 -143.1875 74.5625 C-146.18676114 77.16185966 -148.65580873 79.95647 -151.22265625 82.97265625 C-152.86880511 84.85035132 -154.57735116 86.58127698 -156.375 88.3125 C-160.46620555 92.35854875 -164.05039364 96.76371064 -167.62353516 101.26855469 C-168.59786628 102.49415886 -169.57721459 103.71578223 -170.56005859 104.93457031 C-184.20240132 121.86686708 -195.85409854 139.77384975 -206 159 C-206.35400879 159.66418945 -206.70801758 160.32837891 -207.07275391 161.01269531 C-214.35980534 174.76610727 -220.43218006 189.13604995 -224.875 204.0625 C-225.16153442 205.02434204 -225.16153442 205.02434204 -225.45385742 206.00561523 C-228.11655771 215.42589867 -229.36851036 224.6513366 -229.3125 234.4375 C-229.30831055 235.44304932 -229.30412109 236.44859863 -229.29980469 237.48461914 C-229.14236751 247.82773906 -227.45751012 257.09169311 -222 266 C-221.61457031 266.64324219 -221.22914063 267.28648437 -220.83203125 267.94921875 C-207.06601977 288.49731213 -176.10547943 295.54722336 -154.29541016 303.3203125 C-70.68064328 333.15079916 -70.68064328 333.15079916 -50.61547852 373.92651367 C-41.63199616 393.28353223 -44.35363811 414.21902461 -51.46435547 433.68969727 C-58.6806723 452.49762934 -69.27204764 468.47246661 -82.63793945 483.44702148 C-84.00262246 485.00299004 -85.31612563 486.59227004 -86.625 488.1953125 C-88.56060286 490.48110667 -90.4052625 492.39660865 -92.6875 494.3125 C-95.7198361 496.88829479 -98.65186705 499.53759952 -101.5625 502.25 C-128.66190713 526.61877985 -161.20209905 543.6498557 -198.20263672 542.18652344 C-222.68432786 540.55412581 -249.02066988 527.29969484 -266 510 C-267.32848691 508.99357052 -268.66150329 507.99307821 -270 507 C-272.9381833 504.64945336 -273.89065083 503.55768077 -274.625 499.8125 C-274.74875 498.554375 -274.8725 497.29625 -275 496 C-275.39059147 494.62350179 -275.78676744 493.24858016 -276.1875 491.875 C-278.57422354 481.14385368 -274.51416756 471.05328131 -269 462 C-257.87269943 444.56169314 -242.8450349 426.76923474 -222.53515625 420.203125 C-219.17592163 419.5775692 -217.36352438 419.77833879 -214.4375 421.5625 C-213 424 -213 424 -213.06640625 426.72265625 C-214.30003386 431.05325694 -216.57158551 433.53461682 -219.5 436.875 C-231.39887568 451.08187024 -243.9467295 471.34586252 -243.3515625 490.4453125 C-242.78797576 494.54070946 -241.56500049 496.74175613 -239 500 C-230.21566296 504.95056565 -215.69897024 502.78663809 -206.3125 500.4375 C-174.49118342 490.58804487 -144.22959976 470.76176151 -123 445 C-122.29230469 444.18015625 -121.58460938 443.3603125 -120.85546875 442.515625 C-111.14452864 431.81513684 -111.14452864 431.81513684 -106 419 C-105.34 419 -104.68 419 -104 419 C-103.30177462 416.94023513 -102.60775411 414.87898873 -101.9296875 412.8125 C-101.28713635 410.86864779 -100.62432645 408.93141747 -99.9453125 407 C-95.42964314 393.5518752 -94.18624955 379.99411839 -100.125 366.8125 C-111.65854526 345.77292032 -141.87605672 338.31223624 -163.29327393 331.87124634 C-167.26765927 330.6748406 -171.23421744 329.45338309 -175.20147705 328.2335968 C-178.0908693 327.34551475 -180.98117335 326.4604509 -183.87158203 325.57568359 C-217.37834969 315.29880595 -252.42851021 304.07275506 -278 279 C-278.62390625 278.40058594 -279.2478125 277.80117188 -279.890625 277.18359375 C-292.78301281 263.73950466 -298.17166797 244.73763359 -298.08642578 226.49951172 C-296.17969249 171.35506136 -264.67263552 115.98759455 -231 74 C-230.31550781 73.1234375 -229.63101563 72.246875 -228.92578125 71.34375 C-224.81331674 66.10823526 -220.48843991 61.12549045 -215.98046875 56.2265625 C-213.97716583 54.05356718 -213.97716583 54.05356718 -212.36328125 51.7109375 C-211.91339844 51.14632812 -211.46351563 50.58171875 -211 50 C-210.34 50 -209.68 50 -209 50 C-208.773125 49.443125 -208.54625 48.88625 -208.3125 48.3125 C-206.62449964 45.33840412 -204.53323483 43.27991135 -202 41 C-201.34 41 -200.68 41 -200 41 C-200 40.34 -200 39.68 -200 39 C-198.6015625 37.58984375 -198.6015625 37.58984375 -196.625 35.9375 C-193.50849769 33.29878899 -190.48684101 30.59684332 -187.5 27.8125 C-175.42246567 16.96849432 -162.0669655 8.03785605 -148 0 C-147.1946582 -0.46293457 -146.38931641 -0.92586914 -145.55957031 -1.40283203 C-99.56058521 -27.52426433 -43.59186222 -35.95267635 0 0 Z " fill="#19191A" transform="translate(546,133)"/>
<path d="M0 0 C0 0.66 0 1.32 0 2 C0.55042969 2.01417969 1.10085938 2.02835937 1.66796875 2.04296875 C19.2946963 3.05411436 35.99614307 8.90829694 52 16 C52.82741699 16.36625488 53.65483398 16.73250977 54.50732422 17.10986328 C56.9079388 18.1832399 59.29995668 19.27288116 61.6875 20.375 C62.41291992 20.70862549 63.13833984 21.04225098 63.88574219 21.38598633 C68.87801945 23.75603889 68.87801945 23.75603889 70 26 C71.66196835 26.6782945 73.32964834 27.3426207 75 28 C110.94363356 49.47348882 136.19069473 83.80418042 147 124 C164.15784513 193.06212139 133.3570756 267.1815864 98.44384766 325.60400391 C92.0315079 336.20323646 85.07399283 346.23485575 77.50439453 356.03515625 C75.9697499 358.03950874 74.46369632 360.06251811 72.96484375 362.09375 C67.05546028 370.09635742 60.94265962 377.83170346 54.42822266 385.34960938 C52.89760967 387.11831771 51.37573924 388.89427069 49.85546875 390.671875 C47.38667994 393.55840095 44.91778679 396.44478175 42.43505859 399.31933594 C41.40491358 400.52578682 40.38855598 401.7440619 39.38134766 402.96972656 C38.84944824 403.61135742 38.31754883 404.25298828 37.76953125 404.9140625 C37.28718018 405.50396973 36.8048291 406.09387695 36.30786133 406.70166016 C35 408 35 408 33 408 C32.63745117 408.84933105 32.63745117 408.84933105 32.26757812 409.71582031 C30.74904183 412.4522274 28.92848119 414.33069338 26.71875 416.546875 C25.87699219 417.39121094 25.03523438 418.23554687 24.16796875 419.10546875 C23.28753906 419.97816406 22.40710938 420.85085938 21.5 421.75 C20.61957031 422.63816406 19.73914063 423.52632812 18.83203125 424.44140625 C17.99027344 425.28058594 17.14851563 426.11976563 16.28125 426.984375 C15.50845703 427.75491211 14.73566406 428.52544922 13.93945312 429.31933594 C12 431 12 431 10 431 C10 431.66 10 432.32 10 433 C8.7421875 434.3046875 8.7421875 434.3046875 6.875 435.875 C6.14152344 436.49761719 5.40804688 437.12023437 4.65234375 437.76171875 C3.77707031 438.50035156 2.90179687 439.23898437 2 440 C0.95840382 440.9009218 -0.08188442 441.80335726 -1.12109375 442.70703125 C-14.26598855 454.11297196 -27.82218521 464.90428589 -42 475 C-42.6192334 475.44166504 -43.2384668 475.88333008 -43.87646484 476.33837891 C-88.4340241 507.94758761 -150.04978474 546.36671586 -207.171875 537.71875 C-231.16898455 533.21317025 -260.61331701 521.62717555 -275.64453125 501.33984375 C-277.52347868 498.09635813 -278 495.72531292 -278 492 C-278.99 492 -279.98 492 -281 492 C-280.37159111 488.65834331 -279.68962266 485.32951577 -279 482 C-278.82855469 481.08476563 -278.65710938 480.16953125 -278.48046875 479.2265625 C-275.92074798 467.17110341 -269.56563125 453.02101924 -261 444 C-260.01 444 -259.02 444 -258 444 C-257.67 443.01 -257.34 442.02 -257 441 C-257 441.66 -257 442.32 -257 443 C-255.88625 443.3403125 -255.88625 443.3403125 -254.75 443.6875 C-250.90853437 445.52092678 -248.88511588 448.22976824 -247 452 C-246.90415166 453.43490608 -246.87016607 454.87440439 -246.875 456.3125 C-246.87113281 457.45138672 -246.87113281 457.45138672 -246.8671875 458.61328125 C-247 461 -247 461 -247.48828125 463.3046875 C-248.85087002 470.48168178 -249.47154235 480.06687882 -246.25 486.75 C-243.02864013 491.40307536 -240.56519858 494.44692133 -235 496 C-232.6679198 496.07646165 -230.33154122 496.09143299 -228 496 C-228 496.33 -228 496.66 -228 497 C-196.76814928 499.15888369 -163.38554191 483.11644739 -138 466 C-137.34 465.34 -136.68 464.68 -136 464 C-134.34610415 463.04014973 -132.67652249 462.10725887 -131 461.1875 C-106.99102313 447.32074009 -85.16998188 428.49371515 -64.9140625 409.66796875 C-62.75808347 407.69406302 -60.58216522 405.78272658 -58.36328125 403.8828125 C-53.37695012 399.53601199 -48.71680456 394.86727257 -44.05200195 390.18237305 C-42.54427904 388.66921334 -41.03118241 387.16157115 -39.51757812 385.65429688 C-38.55436608 384.69042526 -37.5914636 383.72624416 -36.62890625 382.76171875 C-35.76338135 381.89506592 -34.89785645 381.02841309 -34.00610352 380.13549805 C-31.9632226 378.16515239 -31.9632226 378.16515239 -31 376 C-30.34 376 -29.68 376 -29 376 C-28.69255859 375.21302734 -28.69255859 375.21302734 -28.37890625 374.41015625 C-26.39481911 370.94221924 -23.69459564 368.30789559 -20.9375 365.4375 C-16.22303016 360.44293708 -11.71187352 355.37323813 -7.41796875 350.0078125 C-5.58788001 347.73128854 -3.73860783 345.48093211 -1.86328125 343.2421875 C17.68587866 319.86231719 35.3009563 295.11515262 51 269 C51.45890625 268.24058105 51.9178125 267.48116211 52.390625 266.69873047 C74.57879929 231.22497616 74.57879929 231.22497616 87 192 C87.66 192 88.32 192 89 192 C89.17305664 191.09664917 89.17305664 191.09664917 89.34960938 190.17504883 C90.73151959 183.09822105 92.38974994 176.11167827 94.14453125 169.11914062 C97.10026163 157.01515272 98.39123701 145.2747932 98.375 132.8125 C98.37468277 131.79727264 98.37468277 131.79727264 98.37435913 130.76153564 C98.2936854 104.80753362 90.38869166 81.70811375 72 63 C44.39791994 38.26620838 4.42265436 35.40659142 -30.71240234 37.13330078 C-35.5304827 37.45150486 -40.25243235 38.12013347 -45 39 C-45.82064941 39.1453418 -46.64129883 39.29068359 -47.48681641 39.44042969 C-87.43687942 46.70935345 -123.43016952 63.69783099 -155 89 C-155.55333008 89.44150391 -156.10666016 89.88300781 -156.67675781 90.33789062 C-162.03311417 94.62432577 -167.22588392 99.00355685 -172.1484375 103.78515625 C-174.68670527 105.45055978 -176.00270402 105.45400219 -179 105 C-181.8828125 103.53125 -181.8828125 103.53125 -185.125 101.5 C-190.75613437 98.10730059 -196.49180777 95.33227297 -202.5625 92.8125 C-203.366875 92.47831055 -204.17125 92.14412109 -205 91.79980469 C-208.66367788 90.30007964 -212.33798328 88.85832878 -216.06640625 87.52734375 C-217.24074219 87.10582031 -218.41507812 86.68429687 -219.625 86.25 C-220.64851563 85.90453125 -221.67203125 85.5590625 -222.7265625 85.203125 C-225 84 -225 84 -225.9765625 82.05859375 C-226.01289906 78.86703239 -224.12416705 77.2167034 -222.046875 74.97265625 C-217.94079209 71.01545803 -213.47492575 67.52689608 -209 64 C-207.93514866 63.13540527 -206.8713693 62.26948881 -205.80859375 61.40234375 C-167.36694111 30.27483587 -123.62471542 12.57380695 -75.78393555 1.64404297 C-74.12940654 1.26127988 -72.47803097 0.86362176 -70.83496094 0.43432617 C-48.8234294 -4.7756944 -22.36586471 -1.28989539 0 0 Z " fill="#19191A" transform="translate(633,352)"/>
<path d="M0 0 C3.70178892 0.89160364 7.35551251 1.89833933 11 3 C11 3.66 11 4.32 11 5 C12.65 5 14.3 5 16 5 C16 5.66 16 6.32 16 7 C17.68548895 8.27876643 17.68548895 8.27876643 19.875 9.5625 C34.48024537 19.05476308 45.39571887 32.37043891 49.4597168 49.50366211 C58.4206872 92.58059039 35.95087086 145.1241423 24.18180847 185.94540405 C18.29237286 206.38052981 12.49551836 226.84202144 6.75262451 247.31878662 C6.0715414 249.74513484 5.38796652 252.17076402 4.70361328 254.59619141 C-3.57920977 284.02016077 -10.98606486 314.435157 -13.5078125 344.96875 C-13.5917627 345.97486328 -13.67571289 346.98097656 -13.76220703 348.01757812 C-13.91607777 349.94743948 -14.05601177 351.87848427 -14.17919922 353.81054688 C-14.53258609 358.55174735 -14.82495138 362.21436511 -18 366 C-30.01443471 370.00481157 -45.22234126 363.24393127 -56 358 C-73.75883069 348.7819732 -73.75883069 348.7819732 -78 341.625 C-81.5625208 330.06280674 -75.37727327 314.94866434 -72.4375 303.69921875 C-71.26614993 299.18170175 -70.28532096 294.65688247 -69.4296875 290.06958008 C-68.83059155 287.18404804 -67.85136543 284.66932353 -66.64331055 281.98168945 C-64.58426765 277.21385084 -63.17278757 272.26857416 -61.70703125 267.29296875 C-61.40007324 266.26384369 -61.09311523 265.23471863 -60.77685547 264.17440796 C-59.78496163 260.84654904 -58.79868852 257.51705362 -57.8125 254.1875 C-56.44966757 249.60624866 -55.08425296 245.02576845 -53.71875 240.4453125 C-53.3880098 239.33444778 -53.05726959 238.22358307 -52.71650696 237.07905579 C-50.47332536 229.55431672 -48.16681201 222.05319861 -45.8125 214.5625 C-9.60884661 109.46136347 -9.60884661 109.46136347 -14 2 C-9.36434398 -2.07599823 -5.76666217 -1.0797495 0 0 Z " fill="#19191A" transform="translate(533,421)"/>
<path d="M0 0 C3.23653377 0.68027628 6.2226254 1.75552718 9.30615234 2.9453125 C9.97179199 3.20159424 10.63743164 3.45787598 11.32324219 3.72192383 C42.60976893 15.93642908 42.60976893 15.93642908 47.11865234 20.4453125 C46.8074849 24.05789061 45.00077635 26.02564464 42.68115234 28.6953125 C25.72427877 49.38330494 12.22489472 76.88516231 9.80615234 103.58203125 C9.11865234 106.4453125 9.11865234 106.4453125 7.28271484 108.34375 C3.1751265 110.43461627 -0.93014116 109.01102688 -5.13134766 107.79296875 C-17.86318207 103.24887653 -32.28587292 93.75820992 -39.88134766 82.4453125 C-44.75935761 67.81128265 -35.22384066 48.0561626 -28.82373047 35.18554688 C-27.80933648 33.17532054 -26.77991414 31.17342353 -25.74853516 29.171875 C-24.49788654 26.73125186 -23.36551364 24.27906851 -22.31494141 21.74609375 C-18.4074812 12.74935294 -10.88686942 -1.70657693 0 0 Z " fill="#19191A" transform="translate(380.88134765625,470.5546875)"/>
<path d="M0 0 C0.33 0 0.66 0 1 0 C1.58112461 12.20361675 -0.64506468 24.59421702 -5 36 C-5.33 36 -5.66 36 -6 36 C-5.54656877 30.28438007 -4.81404322 24.82030181 -3.47265625 19.24609375 C-2.81083342 16.10106789 -2.51826153 12.94936001 -2.24609375 9.75 C-2 8 -2 8 -1 7 C-0.63239269 4.67182036 -0.29758419 2.3381615 0 0 Z " fill="#282828" transform="translate(500,529)"/>
<path d="M0 0 C16.36790085 -0.11077817 32.66240221 -0.06508204 49 1 C49 1.66 49 2.32 49 3 C39.43 3 29.86 3 20 3 C20 2.67 20 2.34 20 2 C13.4 1.67 6.8 1.34 0 1 C0 0.67 0 0.34 0 0 Z " fill="#403F40" transform="translate(582,351)"/>
<path d="M0 0 C0.99 0 1.98 0 3 0 C2.1875 1.9375 2.1875 1.9375 1 4 C-6.85941382 6.61980461 -14.30036609 4.15589749 -22 2 C-19.22622781 1.21159532 -16.80549547 0.88871999 -13.92578125 0.9375 C-12.80139648 0.94910156 -12.80139648 0.94910156 -11.65429688 0.9609375 C-10.88150391 0.97382812 -10.10871094 0.98671875 -9.3125 1 C-6.535726 1.0456331 -3.77805879 1.04723586 -1 1 C-0.67 0.67 -0.34 0.34 0 0 Z " fill="#262525" transform="translate(514,783)"/>
<path d="M0 0 C0.845625 0.09667969 1.69125 0.19335938 2.5625 0.29296875 C4.99358365 0.81113241 6.84214714 1.59870777 9 2.8125 C3.375 3.9375 3.375 3.9375 0 2.8125 C-1.99961564 2.77329185 -4.00049364 2.76806653 -6 2.8125 C-5.34 5.1225 -4.68 7.4325 -4 9.8125 C-4.66 10.4725 -5.32 11.1325 -6 11.8125 C-6.99 8.8425 -7.98 5.8725 -9 2.8125 C-5.86684693 0.00571704 -4.15804365 -0.5387709 0 0 Z " fill="#292828" transform="translate(528,420.1875)"/>
<path d="M0 0 C0 0.66 0 1.32 0 2 C-2.97 1.505 -2.97 1.505 -6 1 C-6 1.66 -6 2.32 -6 3 C-19.6332574 6.44419134 -19.6332574 6.44419134 -26 6 C-21.91516882 3.27677921 -17.72907412 2.48144719 -13 1.3125 C-12.08476563 1.07466797 -11.16953125 0.83683594 -10.2265625 0.59179688 C-9.34742188 0.37201172 -8.46828125 0.15222656 -7.5625 -0.07421875 C-6.35787109 -0.37718872 -6.35787109 -0.37718872 -5.12890625 -0.6862793 C-3 -1 -3 -1 0 0 Z " fill="#282828" transform="translate(550,357)"/>
<path d="M0 0 C-1.48171072 3.53391969 -3.45548562 5.59930326 -6.3125 8.125 C-7.07175781 8.80820312 -7.83101562 9.49140625 -8.61328125 10.1953125 C-11.01179303 12.00891715 -13.16851568 13.02777353 -16 14 C-12.86792618 10.25678983 -9.69171033 6.58550652 -6.3125 3.0625 C-5.75175781 2.47597656 -5.19101562 1.88945313 -4.61328125 1.28515625 C-3 0 -3 0 0 0 Z " fill="#201F20" transform="translate(592,742)"/>
<path d="M0 0 C1.15294668 3.45884004 0.79943888 4.47127724 -0.21484375 7.88671875 C-0.48876953 8.82451172 -0.76269531 9.76230469 -1.04492188 10.72851562 C-1.33947266 11.70498047 -1.63402344 12.68144531 -1.9375 13.6875 C-2.22818359 14.67556641 -2.51886719 15.66363281 -2.81835938 16.68164062 C-3.53793217 19.1234696 -4.26540993 21.56265482 -5 24 C-6.37345891 21.75649249 -7.04352375 20.474462 -6.79980469 17.81762695 C-6.59258789 17.04894287 -6.38537109 16.28025879 -6.171875 15.48828125 C-5.94886719 14.64845703 -5.72585938 13.80863281 -5.49609375 12.94335938 C-5.24988281 12.07517578 -5.00367188 11.20699219 -4.75 10.3125 C-4.40388672 8.99282227 -4.40388672 8.99282227 -4.05078125 7.64648438 C-2.74494688 2.86211382 -2.74494688 2.86211382 -2 1 C-1.34 0.67 -0.68 0.34 0 0 Z " fill="#222121" transform="translate(542,654)"/>
<path d="M0 0 C1.77024586 0.0456102 3.54208157 0.03833112 5.3125 0 C12.24402007 -0.0678729 19.09563341 0.42804064 26 1 C26 1.33 26 1.66 26 2 C14.0167245 2.96387216 2.87122953 2.98126727 -9 1 C-9 0.67 -9 0.34 -9 0 C-3.375 -1.125 -3.375 -1.125 0 0 Z " fill="#2A2929" transform="translate(431,888)"/>
<path d="M0 0 C0.66 0.33 1.32 0.66 2 1 C-0.77488604 3.94831641 -3.55119004 6.1937951 -7 8.3125 C-7.845625 8.84488281 -8.69125 9.37726563 -9.5625 9.92578125 C-12 11 -12 11 -14.3125 10.66796875 C-14.869375 10.44753906 -15.42625 10.22710937 -16 10 C-15.09636719 9.44570312 -14.19273437 8.89140625 -13.26171875 8.3203125 C-12.07029421 7.58857144 -10.87888897 6.85679896 -9.6875 6.125 C-9.09259766 5.76019531 -8.49769531 5.39539063 -7.88476562 5.01953125 C-5.22637701 3.38588461 -2.59656263 1.73104176 0 0 Z " fill="#232324" transform="translate(401,131)"/>
<path d="M0 0 C0.33 0 0.66 0 1 0 C0.85991329 3.5210863 0.71189018 7.04179712 0.5625 10.5625 C0.52318359 11.55314453 0.48386719 12.54378906 0.44335938 13.56445312 C0.21827654 18.77598637 -0.14105239 23.85353238 -1 29 C-1.33 29 -1.66 29 -2 29 C-2.0580772 24.91672643 -2.09362249 20.83355917 -2.125 16.75 C-2.14175781 15.59113281 -2.15851562 14.43226563 -2.17578125 13.23828125 C-2.18222656 12.12324219 -2.18867187 11.00820313 -2.1953125 9.859375 C-2.20578613 8.83295898 -2.21625977 7.80654297 -2.22705078 6.74902344 C-1.99836111 3.98015712 -1.4243299 2.35581208 0 0 Z " fill="#383738" transform="translate(519,753)"/>
<path d="M0 0 C0.66 0.66 1.32 1.32 2 2 C1.90745656 6.16445467 1.24187812 7.72862455 -1.5625 10.875 C-2.7690625 11.926875 -2.7690625 11.926875 -4 13 C-3.67 9.04 -3.34 5.08 -3 1 C-2.01 0.67 -1.02 0.34 0 0 Z " fill="#242323" transform="translate(331,555)"/>
<path d="M0 0 C2.44168979 3.03056792 4.13027389 6.09018596 5.75 9.625 C6.19859375 10.58664062 6.6471875 11.54828125 7.109375 12.5390625 C7.40328125 13.35117187 7.6971875 14.16328125 8 15 C7.67 15.66 7.34 16.32 7 17 C3.82339917 15.41169958 3.13200316 12.19515574 1.8125 9.0625 C1.52697266 8.41603516 1.24144531 7.76957031 0.94726562 7.10351562 C0.23253791 5.42886164 -0.39063089 3.71580039 -1 2 C-0.67 1.34 -0.34 0.68 0 0 Z " fill="#212121" transform="translate(765,440)"/>
<path d="M0 0 C5.96652354 1.57013777 10.82909025 4.75029782 16 8 C11.41201223 9.53271273 9.22055258 8.02911182 5 6 C5 5.01 5 4.02 5 3 C3.68 3 2.36 3 1 3 C0.67 2.01 0.34 1.02 0 0 Z " fill="#252525" transform="translate(439,456)"/>
<path d="M0 0 C0.99 0.66 1.98 1.32 3 2 C0.71296692 3.19725883 -1.57884862 4.38297018 -3.875 5.5625 C-4.52597656 5.90474609 -5.17695312 6.24699219 -5.84765625 6.59960938 C-7.53529857 7.46082891 -9.26579593 8.23686703 -11 9 C-11.66 8.67 -12.32 8.34 -13 8 C-10.59310197 5.27324841 -8.07528977 3.88033404 -4.8125 2.3125 C-3.91144531 1.87550781 -3.01039063 1.43851562 -2.08203125 0.98828125 C-1.39496094 0.66214844 -0.70789063 0.33601563 0 0 Z " fill="#272626" transform="translate(528,406)"/>
<path d="M0 0 C3.31398638 0.6952419 6.14733978 1.89309029 9.1875 3.375 C10.06792969 3.79523438 10.94835937 4.21546875 11.85546875 4.6484375 C14 6 14 6 15 9 C11.45756548 7.63408831 8.07372071 6.09068516 4.6875 4.375 C3.80449219 3.92898438 2.92148437 3.48296875 2.01171875 3.0234375 C1.34785156 2.68570312 0.68398438 2.34796875 0 2 C0 1.34 0 0.68 0 0 Z " fill="#202020" transform="translate(436,445)"/>
<path d="M0 0 C1 2 1 2 0.00390625 5.4765625 C-0.46900047 6.86197936 -0.94981644 8.24471547 -1.4375 9.625 C-1.68048828 10.33140625 -1.92347656 11.0378125 -2.17382812 11.765625 C-2.77587205 13.51273287 -3.38708017 15.25667786 -4 17 C-5.109375 15.38671875 -5.109375 15.38671875 -6 13 C-5.390625 10.01953125 -5.390625 10.01953125 -4.25 6.8125 C-3.88390625 5.74644531 -3.5178125 4.68039062 -3.140625 3.58203125 C-2 1 -2 1 0 0 Z " fill="#282828" transform="translate(307,598)"/>
<path d="M0 0 C0.99 0.33 1.98 0.66 3 1 C5.93718291 7.64730869 5.17799683 14.87023801 5 22 C4.67 22 4.34 22 4 22 C3.79503906 20.74703125 3.59007812 19.4940625 3.37890625 18.203125 C3.10685726 16.55206909 2.83471707 14.90102821 2.5625 13.25 C2.42779297 12.425 2.29308594 11.6 2.15429688 10.75 C2.02216797 9.95078125 1.89003906 9.1515625 1.75390625 8.328125 C1.63345947 7.5949707 1.5130127 6.86181641 1.38891602 6.10644531 C1.00808324 4.04378041 0.53121105 2.02862484 0 0 Z " fill="#2C2C2C" transform="translate(447,501)"/>
<path d="M0 0 C3.32445643 6.06224407 4.36108506 13.13938387 4 20 C3.67 20 3.34 20 3 20 C2.34 17.36 1.68 14.72 1 12 C0.67 12 0.34 12 0 12 C-0.76173392 7.6835078 -1.16063604 4.25566547 0 0 Z " fill="#313131" transform="translate(779,476)"/>
<path d="M0 0 C0.33 0 0.66 0 1 0 C1.71033431 5.52967941 2.30267176 10.49983036 1 16 C0.34 16 -0.32 16 -1 16 C-1.33 16.99 -1.66 17.98 -2 19 C-1.34 12.73 -0.68 6.46 0 0 Z " fill="#292829" transform="translate(521,496)"/>
<path d="M0 0 C0.33 0.66 0.66 1.32 1 2 C-0.25 5.5625 -0.25 5.5625 -2 9 C-2.99 9.33 -3.98 9.66 -5 10 C-5 10.66 -5 11.32 -5 12 C-5.99 11.67 -6.98 11.34 -8 11 C-5.36 7.37 -2.72 3.74 0 0 Z " fill="#212121" transform="translate(488,260)"/>
<path d="M0 0 C0.33 0.99 0.66 1.98 1 3 C-0.65234375 5.69921875 -0.65234375 5.69921875 -2.9375 8.6875 C-3.68902344 9.68136719 -4.44054687 10.67523437 -5.21484375 11.69921875 C-5.80394531 12.45847656 -6.39304687 13.21773437 -7 14 C-7.33 13.01 -7.66 12.02 -8 11 C-6.34765625 8.30078125 -6.34765625 8.30078125 -4.0625 5.3125 C-3.31097656 4.31863281 -2.55945313 3.32476563 -1.78515625 2.30078125 C-1.19605469 1.54152344 -0.60695313 0.78226563 0 0 Z " fill="#201F1F" transform="translate(714,699)"/>
<path d="M0 0 C0.66 0 1.32 0 2 0 C0.07289294 10.55808656 0.07289294 10.55808656 -2 15 C-2.33 15 -2.66 15 -3 15 C-2.5547115 9.72684667 -1.91626837 4.98229776 0 0 Z " fill="#242424" transform="translate(770,586)"/>
<path d="M0 0 C0.97226335 2.59072612 1.11611108 3.69699083 0.109375 6.32421875 C-0.33921875 7.10410156 -0.7878125 7.88398438 -1.25 8.6875 C-1.68828125 9.47511719 -2.1265625 10.26273438 -2.578125 11.07421875 C-4 13 -4 13 -7 14 C-5.23570801 9.02790438 -2.6060834 4.56561939 0 0 Z " fill="#232323" transform="translate(507,228)"/>
<path d="M0 0 C2.77042109 2.77042109 2.39796106 4.76533805 2.625 8.625 C2.69976562 9.81351563 2.77453125 11.00203125 2.8515625 12.2265625 C2.92503906 13.59941406 2.92503906 13.59941406 3 15 C2.01 14.67 1.02 14.34 0 14 C0 9.38 0 4.76 0 0 Z " fill="#0F0F0F" transform="translate(355,835)"/>
<path d="M0 0 C0.33 0.66 0.66 1.32 1 2 C0.26821134 4.07196631 -0.55899003 6.1108552 -1.4375 8.125 C-1.91058594 9.22070312 -2.38367188 10.31640625 -2.87109375 11.4453125 C-3.24363281 12.28835938 -3.61617187 13.13140625 -4 14 C-4.33 14 -4.66 14 -5 14 C-5.383042 8.76509271 -4.3382052 5.58647943 -2 1 C-1.34 0.67 -0.68 0.34 0 0 Z " fill="#272627" transform="translate(761,615)"/>
<path d="M0 0 C0.33 0 0.66 0 1 0 C2.33500455 5.34001821 1.512545 8.83955235 0 14 C-0.66 14 -1.32 14 -2 14 C-2.33 14.66 -2.66 15.32 -3 16 C-2.68954268 14.0830014 -2.37655329 12.16641277 -2.0625 10.25 C-1.88847656 9.18265625 -1.71445312 8.1153125 -1.53515625 7.015625 C-1.11295829 4.63652407 -0.62797116 2.33084789 0 0 Z " fill="#2B2A2B" transform="translate(513,540)"/>
<path d="M0 0 C0.33 0 0.66 0 1 0 C1.05410687 1.77049689 1.09284119 3.54146849 1.125 5.3125 C1.14820313 6.29863281 1.17140625 7.28476562 1.1953125 8.30078125 C1 11 1 11 -1 14 C-1.66 13.67 -2.32 13.34 -3 13 C-2.45144652 8.428721 -1.58255197 4.32564205 0 0 Z " fill="#272627" transform="translate(479,663)"/>
<path d="M0 0 C0.33 0 0.66 0 1 0 C1.33808686 2.06172613 1.67027361 4.1244203 2 6.1875 C2.185625 7.33605469 2.37125 8.48460937 2.5625 9.66796875 C2.93489477 12.50415393 3.08596021 15.14719564 3 18 C2.01 18.33 1.02 18.66 0 19 C0 12.73 0 6.46 0 0 Z " fill="#323030" transform="translate(525,162)"/>
<path d="M0 0 C0.33 0 0.66 0 1 0 C1.24803781 2.79117245 1.47414334 5.58115074 1.6875 8.375 C1.79674805 9.56609375 1.79674805 9.56609375 1.90820312 10.78125 C2.07421875 13.0859375 2.07421875 13.0859375 2 17 C1.01 17.66 0.02 18.32 -1 19 C-0.67 12.73 -0.34 6.46 0 0 Z " fill="#393737" transform="translate(525,459)"/>
<path d="M0 0 C-3.0469629 1.69433918 -5.82821466 2.49467112 -9.25 3.125 C-10.58804688 3.37636719 -10.58804688 3.37636719 -11.953125 3.6328125 C-12.62859375 3.75398438 -13.3040625 3.87515625 -14 4 C-13.34 3.67 -12.68 3.34 -12 3 C-12 2.34 -12 1.68 -12 1 C-7.58774263 -0.47075246 -4.51718381 -1.36884358 0 0 Z " fill="#252525" transform="translate(569,394)"/>
<path d="M0 0 C-1.39376181 2.78752362 -3.17508558 3.30431115 -5.9375 4.6875 C-6.83339844 5.14511719 -7.72929687 5.60273438 -8.65234375 6.07421875 C-9.42707031 6.37972656 -10.20179688 6.68523437 -11 7 C-11.66 6.67 -12.32 6.34 -13 6 C-9.24201894 1.84644198 -5.71575712 -0.48992204 0 0 Z " fill="#282828" transform="translate(483,324)"/>
<path d="M0 0 C2.09350689 3.4019487 2.17942163 6.05272412 2 10 C1.34 10 0.68 10 0 10 C-1.63676257 11.9600281 -1.63676257 11.9600281 -3 14 C-2.68872484 12.41642541 -2.37592711 10.83315007 -2.0625 9.25 C-1.80146484 7.92742187 -1.80146484 7.92742187 -1.53515625 6.578125 C-1.07631512 4.36764947 -0.56663926 2.18487932 0 0 Z " fill="#2E2D2E" transform="translate(524,183)"/>
<path d="M0 0 C1.21065165 3.63195496 0.62784815 5.06531629 -0.4375 8.6875 C-0.86869141 10.17830078 -0.86869141 10.17830078 -1.30859375 11.69921875 C-1.53675781 12.45847656 -1.76492188 13.21773437 -2 14 C-4 11 -4 11 -3.7578125 8.73828125 C-3.44457031 7.53751953 -3.44457031 7.53751953 -3.125 6.3125 C-2.92132812 5.50425781 -2.71765625 4.69601562 -2.5078125 3.86328125 C-2.34023438 3.24839844 -2.17265625 2.63351562 -2 2 C-1.34 2 -0.68 2 0 2 C0 1.34 0 0.68 0 0 Z " fill="#272626" transform="translate(557,601)"/>
<path d="M0 0 C0.33 0 0.66 0 1 0 C1.19466332 1.79090253 1.38051213 3.58276505 1.5625 5.375 C1.66691406 6.37273438 1.77132813 7.37046875 1.87890625 8.3984375 C2 11 2 11 1 13 C0.34 13 -0.32 13 -1 13 C-1.33 13.66 -1.66 14.32 -2 15 C-1.34 10.05 -0.68 5.1 0 0 Z " fill="#2D2D2E" transform="translate(450,523)"/>
<path d="M0 0 C1.31611677 0.95336021 2.62778961 1.91285774 3.9375 2.875 C4.66839844 3.40867187 5.39929688 3.94234375 6.15234375 4.4921875 C8 6 8 6 9 8 C5.23293356 7.47679633 2.72611199 6.72611199 0 4 C0 2.68 0 1.36 0 0 Z " fill="#232323" transform="translate(556,433)"/>
<path d="M0 0 C0.66 0.33 1.32 0.66 2 1 C-1.625 6.75 -1.625 6.75 -5 9 C-5.66 8.34 -6.32 7.68 -7 7 C-4.69 4.69 -2.38 2.38 0 0 Z " fill="#282728" transform="translate(299,568)"/>
<path d="M0 0 C3.32643967 2.98232523 5.29152862 5.86370087 7 10 C6.67 10.66 6.34 11.32 6 12 C4.98829382 10.75945552 3.99102203 9.5071298 3 8.25 C2.443125 7.55390625 1.88625 6.8578125 1.3125 6.140625 C0 4 0 4 0 0 Z " fill="#222223" transform="translate(259,397)"/>
<path d="M0 0 C-1 2 -1 2 -2.92578125 2.66796875 C-3.71339844 2.83941406 -4.50101563 3.01085937 -5.3125 3.1875 C-6.09238281 3.36667969 -6.87226562 3.54585938 -7.67578125 3.73046875 C-10.09204759 4.01067443 -11.70242952 3.74132137 -14 3 C-12.23358317 2.3012307 -10.46167336 1.61633417 -8.6875 0.9375 C-7.20830078 0.36322266 -7.20830078 0.36322266 -5.69921875 -0.22265625 C-3 -1 -3 -1 0 0 Z " fill="#2B2B2B" transform="translate(523,364)"/>
<path d="M0 0 C0.66 0.99 1.32 1.98 2 3 C1.34 4.32 0.68 5.64 0 7 C-0.66 7 -1.32 7 -2 7 C-2 8.65 -2 10.3 -2 12 C-2.99 12.33 -3.98 12.66 -5 13 C-4.54554036 11.58208592 -4.08625056 10.16571954 -3.625 8.75 C-3.24214844 7.56664062 -3.24214844 7.56664062 -2.8515625 6.359375 C-2.04826333 4.13372042 -1.10288338 2.09068328 0 0 Z " fill="#282828" transform="translate(270,280)"/>
<path d="M0 0 C-2.34914492 2.34914492 -3.95679446 2.73140357 -7.125 3.625 C-8.49011719 4.01558594 -8.49011719 4.01558594 -9.8828125 4.4140625 C-10.58148438 4.60742188 -11.28015625 4.80078125 -12 5 C-11 2 -11 2 -8.8125 0.8125 C-5.74609689 -0.07334979 -3.17561845 -0.14770318 0 0 Z " fill="#282728" transform="translate(511,872)"/>
<path d="M0 0 C0.65234375 1.765625 0.65234375 1.765625 1 4 C0.00390625 5.921875 0.00390625 5.921875 -1.4375 7.75 C-2.14712891 8.67039062 -2.14712891 8.67039062 -2.87109375 9.609375 C-3.24363281 10.06828125 -3.61617187 10.5271875 -4 11 C-4.65234375 9.234375 -4.65234375 9.234375 -5 7 C-4.00390625 5.078125 -4.00390625 5.078125 -2.5625 3.25 C-2.08941406 2.63640625 -1.61632812 2.0228125 -1.12890625 1.390625 C-0.75636719 0.93171875 -0.38382813 0.4728125 0 0 Z " fill="#212020" transform="translate(724,684)"/>
<path d="M0 0 C-1.33345504 3.59007126 -2.8943231 6.79570907 -5 10 C-5.33 10 -5.66 10 -6 10 C-6.33663062 6.29706315 -6.47736015 4.60465619 -4.125 1.625 C-2 0 -2 0 0 0 Z " fill="#222122" transform="translate(734,671)"/>
<path d="M0 0 C0.33 0 0.66 0 1 0 C1.125 7.625 1.125 7.625 0 11 C-0.66 11 -1.32 11 -2 11 C-2.33 11.99 -2.66 12.98 -3 14 C-2.40380045 9.13103697 -1.43023178 4.67209049 0 0 Z " fill="#2A2929" transform="translate(495,609)"/>
<path d="M0 0 C7.57142857 1.85714286 7.57142857 1.85714286 10 5 C9.67 5.99 9.34 6.98 9 8 C8.34 7.34 7.68 6.68 7 6 C5.80954006 5.26202257 4.59938375 4.55521319 3.375 3.875 C2.26125 3.25625 1.1475 2.6375 0 2 C0 1.34 0 0.68 0 0 Z " fill="#2D2C2C" transform="translate(418,486)"/>
<path d="M0 0 C1.62723299 0.45034123 3.25173664 0.91055354 4.875 1.375 C5.77992188 1.63023437 6.68484375 1.88546875 7.6171875 2.1484375 C10 3 10 3 12 5 C8.37673261 6.2077558 7.35853631 5.54311128 4 4 C4 3.34 4 2.68 4 2 C2.68 2.33 1.36 2.66 0 3 C0 2.01 0 1.02 0 0 Z " fill="#282727" transform="translate(408,443)"/>
<path d="M0 0 C0.33 0 0.66 0 1 0 C1.92247401 4.30487872 2.16635883 7.72335094 1 12 C0.01 12.66 -0.98 13.32 -2 14 C-1.03644647 4.58997722 -1.03644647 4.58997722 0 0 Z " fill="#2B2A2B" transform="translate(516,526)"/>
<path d="M0 0 C0.33 0.66 0.66 1.32 1 2 C1.66 2 2.32 2 3 2 C2.67 3.65 2.34 5.3 2 7 C1.01 7 0.02 7 -1 7 C-1.33 7.99 -1.66 8.98 -2 10 C-1.125 2.25 -1.125 2.25 0 0 Z " fill="#232323" transform="translate(344,525)"/>
<path d="M0 0 C0.99 0.33 1.98 0.66 3 1 C3.73046875 3.06640625 3.73046875 3.06640625 4.1875 5.5625 C4.34605469 6.38878906 4.50460937 7.21507812 4.66796875 8.06640625 C4.77753906 8.70449219 4.88710938 9.34257812 5 10 C4.01 10.495 4.01 10.495 3 11 C2.01 7.37 1.02 3.74 0 0 Z " fill="#272627" transform="translate(725,443)"/>
<path d="M0 0 C1.65 0 3.3 0 5 0 C5 0.66 5 1.32 5 2 C6.65 2 8.3 2 10 2 C10 2.99 10 3.98 10 5 C4.25 4.125 4.25 4.125 2 3 C2 2.34 2 1.68 2 1 C1.34 0.67 0.68 0.34 0 0 Z " fill="#2C2B2B" transform="translate(539,424)"/>
<path d="M0 0 C0.8971875 0.5259375 0.8971875 0.5259375 1.8125 1.0625 C0.56829353 1.5970256 -0.68320936 2.11458611 -1.9375 2.625 C-2.63359375 2.91503906 -3.3296875 3.20507812 -4.046875 3.50390625 C-6.48762784 4.14081803 -7.8278655 3.86498831 -10.1875 3.0625 C-3.11397059 -1.33455882 -3.11397059 -1.33455882 0 0 Z " fill="#2B2A2A" transform="translate(468.1875,330.9375)"/>
<path d="M0 0 C0.66 0.33 1.32 0.66 2 1 C1.67 1.99 1.34 2.98 1 4 C0.34 4 -0.32 4 -1 4 C-1.33 4.66 -1.66 5.32 -2 6 C-3.65 5.67 -5.3 5.34 -7 5 C-4.702779 3.25728062 -2.40133271 1.60088848 0 0 Z " fill="#202120" transform="translate(441,310)"/>
<path d="M0 0 C1.80411967 2.75924185 2.0127245 3.88972103 1.625 7.25 C1.41875 8.1575 1.2125 9.065 1 10 C0.34 10 -0.32 10 -1 10 C-1.33 10.99 -1.66 11.98 -2 13 C-1.85769192 11.58297487 -1.71099254 10.1663904 -1.5625 8.75 C-1.48128906 7.96109375 -1.40007812 7.1721875 -1.31640625 6.359375 C-1.02365007 4.17635361 -0.57935581 2.1226818 0 0 Z " fill="#303031" transform="translate(458,734)"/>
<path d="M0 0 C4.17148265 -0.19402245 7.28944583 -0.01430083 11 2 C11.33 2.99 11.66 3.98 12 5 C10.56068883 4.54738642 9.12361001 4.08767021 7.6875 3.625 C6.88699219 3.36976563 6.08648437 3.11453125 5.26171875 2.8515625 C3 2 3 2 0 0 Z " fill="#242323" transform="translate(312,664)"/>
<path d="M0 0 C2.72426311 2.35277269 3.8141763 4.62496331 5 8 C3.35 7.67 1.7 7.34 0 7 C0 4.69 0 2.38 0 0 Z " fill="#252524" transform="translate(760,432)"/>
<path d="M0 0 C2 4 2 4 1.625 6.25 C1.41875 6.8275 1.2125 7.405 1 8 C-0.32 8.33 -1.64 8.66 -3 9 C-2.01 6.03 -1.02 3.06 0 0 Z " fill="#222121" transform="translate(517,206)"/>
<path d="M0 0 C-1.28524261 0.86380259 -2.57842419 1.71580369 -3.875 2.5625 C-4.59429687 3.03816406 -5.31359375 3.51382813 -6.0546875 4.00390625 C-6.69664062 4.33261719 -7.33859375 4.66132813 -8 5 C-8.66 4.67 -9.32 4.34 -10 4 C-4.75 -1.425 -4.75 -1.425 0 0 Z " fill="#272626" transform="translate(463,163)"/>
<path d="M0 0 C0.515625 0.391875 1.03125 0.78375 1.5625 1.1875 C0.29410474 1.69365298 -0.97733102 2.19219099 -2.25 2.6875 C-3.31154297 3.10515625 -3.31154297 3.10515625 -4.39453125 3.53125 C-6.4375 4.1875 -6.4375 4.1875 -9.4375 4.1875 C-9.4375 3.5275 -9.4375 2.8675 -9.4375 2.1875 C-3.0375 -1.0125 -3.0375 -1.0125 0 0 Z " fill="#242424" transform="translate(497.4375,876.8125)"/>
<path d="M0 0 C0.99 0.66 1.98 1.32 3 2 C1.71349294 2.69710731 0.42059335 3.38242876 -0.875 4.0625 C-1.95394531 4.63677734 -1.95394531 4.63677734 -3.0546875 5.22265625 C-3.69664062 5.47917969 -4.33859375 5.73570312 -5 6 C-5.66 5.67 -6.32 5.34 -7 5 C-4.87219421 2.65941363 -2.88437779 1.29299694 0 0 Z " fill="#242424" transform="translate(531,860)"/>
<path d="M0 0 C0.33 0 0.66 0 1 0 C1.18451025 9.41002278 1.18451025 9.41002278 0 14 C-0.33 14 -0.66 14 -1 14 C-2.12029814 8.51053913 -1.79217969 5.16569441 0 0 Z " fill="#2F2F2F" transform="translate(385,804)"/>
<path d="M0 0 C3.5625 1.25 3.5625 1.25 7 3 C7.33 3.99 7.66 4.98 8 6 C4.08788267 4.84414715 1.1254959 3.64465038 -2 1 C-1.34 0.67 -0.68 0.34 0 0 Z " fill="#242423" transform="translate(304,658)"/>
<path d="M0 0 C0.99 0.33 1.98 0.66 3 1 C0.36 2.98 -2.28 4.96 -5 7 C-5.66 6.67 -6.32 6.34 -7 6 C-2.25 1.125 -2.25 1.125 0 0 Z " fill="#252424" transform="translate(425,647)"/>
<path d="M0 0 C0.66 0 1.32 0 2 0 C0.84414715 3.91211733 -0.35534962 6.8745041 -3 10 C-2.25 3.375 -2.25 3.375 0 0 Z " fill="#252425" transform="translate(312,586)"/>
<path d="M0 0 C2 0 2 0 4.4375 2.3125 C5.283125 3.199375 6.12875 4.08625 7 5 C7.598125 5.598125 8.19625 6.19625 8.8125 6.8125 C9.204375 7.204375 9.59625 7.59625 10 8 C5.17965738 7.58682778 3.09007389 5.61980085 0 2 C0 1.34 0 0.68 0 0 Z " fill="#141314" transform="translate(344,555)"/>
<path d="M0 0 C0.66 0.33 1.32 0.66 2 1 C-0.97 3.64 -3.94 6.28 -7 9 C-7.66 8.67 -8.32 8.34 -9 8 C-6.37347975 4.40069448 -4.06036357 1.92333011 0 0 Z " fill="#0E0F0F" transform="translate(365,157)"/>
<path d="M0 0 C0.66 0.33 1.32 0.66 2 1 C-0.44939271 5.77631579 -0.44939271 5.77631579 -3 6.8125 C-5 7 -5 7 -8 7 C-5.36 4.69 -2.72 2.38 0 0 Z " fill="#2F2F2E" transform="translate(369,152)"/>
<path d="M0 0 C0.66 0.33 1.32 0.66 2 1 C0.10595266 4.34243648 -0.94091591 4.97997149 -4.6875 6.25 C-6.3271875 6.62125 -6.3271875 6.62125 -8 7 C-5.4837822 4.39391727 -2.94865641 2.10618315 0 0 Z " fill="#292929" transform="translate(524,798)"/>
<path d="M0 0 C0.66 0.66 1.32 1.32 2 2 C1.625 5.125 1.625 5.125 1 8 C0.34 8 -0.32 8 -1 8 C-1.33 8.99 -1.66 9.98 -2 11 C-1.125 3.375 -1.125 3.375 0 0 Z " fill="#282728" transform="translate(461,723)"/>
<path d="M0 0 C0.66 0.33 1.32 0.66 2 1 C0.35 2.98 -1.3 4.96 -3 7 C-4.32 6.67 -5.64 6.34 -7 6 C-4.69 4.02 -2.38 2.04 0 0 Z " fill="#272728" transform="translate(400,600)"/>
<path d="M0 0 C1.125 1.6875 1.125 1.6875 2 4 C1.125 6.75 1.125 6.75 0 9 C-0.66 9 -1.32 9 -2 9 C-2 7.02 -2 5.04 -2 3 C-1.34 3 -0.68 3 0 3 C0 2.01 0 1.02 0 0 Z " fill="#202121" transform="translate(722,541)"/>
<path d="M0 0 C0.8125 1.6875 0.8125 1.6875 1 4 C-1.4375 6.75 -1.4375 6.75 -4 9 C-4 5.00095031 -2.27413033 3.19799578 0 0 Z " fill="#262526" transform="translate(371,473)"/>
<path d="M0 0 C3 1 6 2 9 3 C9 3.66 9 4.32 9 5 C5.26512223 4.5020163 3.18762365 4.12508244 0 2 C0 1.34 0 0.68 0 0 Z " fill="#252425" transform="translate(694,373)"/>
<path d="M0 0 C0.33 0.66 0.66 1.32 1 2 C0.22265625 3.9453125 0.22265625 3.9453125 -0.9375 6.125 C-1.31777344 6.84945313 -1.69804687 7.57390625 -2.08984375 8.3203125 C-2.39019531 8.87460937 -2.69054687 9.42890625 -3 10 C-3.66 9.01 -4.32 8.02 -5 7 C-2.25 1.125 -2.25 1.125 0 0 Z " fill="#252425" transform="translate(338,292)"/>
<path d="M0 0 C0.66 0.33 1.32 0.66 2 1 C0.75 2.5 0.75 2.5 -1 4 C-2.32 4 -3.64 4 -5 4 C-5 4.66 -5 5.32 -5 6 C-5.99 5.67 -6.98 5.34 -8 5 C-5.45378681 2.99940392 -3.01962385 1.20784954 0 0 Z " fill="#282828" transform="translate(411,126)"/>
<path d="M0 0 C6.625 0.75 6.625 0.75 10 3 C7.18263828 3.78260048 5.54030762 4.19511109 2.75 3.1875 C1 2 1 2 0 0 Z " fill="#282727" transform="translate(499,111)"/>
<path d="M0 0 C1.66362417 0.34820041 3.32995171 0.68404492 5 1 C5 1.33 5 1.66 5 2 C0.1666528 2.08333357 -4.23692563 1.95261487 -9 1 C-9 0.67 -9 0.34 -9 0 C-3.375 -1.125 -3.375 -1.125 0 0 Z " fill="#363536" transform="translate(431,888)"/>
<path d="M0 0 C2 1 2 1 3 3 C-1.43076923 5.09230769 -1.43076923 5.09230769 -4.3125 4.625 C-4.869375 4.41875 -5.42625 4.2125 -6 4 C-4.02 2.68 -2.04 1.36 0 0 Z " fill="#272728" transform="translate(504,812)"/>
<path d="M0 0 C0.66 0 1.32 0 2 0 C1.67 3.96 1.34 7.92 1 12 C0.67 12 0.34 12 0 12 C-0.19573608 10.56359829 -0.38127816 9.12580496 -0.5625 7.6875 C-0.66691406 6.88699219 -0.77132812 6.08648438 -0.87890625 5.26171875 C-1 3 -1 3 0 0 Z " fill="#302F30" transform="translate(520,740)"/>
<path d="M0 0 C0.99 0 1.98 0 3 0 C1.63016497 3.16115776 1.0109362 3.9927092 -2 6 C-2 2 -2 2 0 0 Z " fill="#1F1F1F" transform="translate(628,699)"/>
<path d="M0 0 C0.66 0.33 1.32 0.66 2 1 C1.1875 4.4375 1.1875 4.4375 0 8 C-0.99 8.33 -1.98 8.66 -3 9 C-2.01 6.03 -1.02 3.06 0 0 Z " fill="#212021" transform="translate(706,580)"/>
<path d="M0 0 C1.41687119 4.25061356 0.19320039 6.71851625 -1 11 C-3 8 -3 8 -2.625 4.8125 C-2.41875 3.884375 -2.2125 2.95625 -2 2 C-1.34 2 -0.68 2 0 2 C0 1.34 0 0.68 0 0 Z " fill="#2A2A2A" transform="translate(776,569)"/>
<path d="M0 0 C0.66 0.33 1.32 0.66 2 1 C1.01 3.97 0.02 6.94 -1 10 C-1.66 9.67 -2.32 9.34 -3 9 C-2.01 6.03 -1.02 3.06 0 0 Z " fill="#201F20" transform="translate(712,567)"/>
<path d="M0 0 C0.33 0 0.66 0 1 0 C1.36923077 6.52307692 1.36923077 6.52307692 -0.5 8.9375 C-0.995 9.288125 -1.49 9.63875 -2 10 C-3 8 -3 8 -2.44140625 6.0546875 C-2.15136719 5.33539062 -1.86132812 4.61609375 -1.5625 3.875 C-1.27503906 3.15054688 -0.98757813 2.42609375 -0.69140625 1.6796875 C-0.46324219 1.12539063 -0.23507812 0.57109375 0 0 Z " fill="#282728" transform="translate(447,538)"/>
<path d="M0 0 C0.33 0 0.66 0 1 0 C1.19622241 4.21878192 0.80230168 7.17010894 -1 11 C-1.33 11 -1.66 11 -2 11 C-2 8.36 -2 5.72 -2 3 C-1.34 3 -0.68 3 0 3 C0 2.01 0 1.02 0 0 Z " fill="#212121" transform="translate(782,536)"/>
<path d="M0 0 C0.66 0.33 1.32 0.66 2 1 C1.67 4.3 1.34 7.6 1 11 C0.67 11 0.34 11 0 11 C-1.28571429 3.57142857 -1.28571429 3.57142857 0 0 Z " fill="#292829" transform="translate(576,523)"/>
<path d="M0 0 C2.31 0.66 4.62 1.32 7 2 C6.01 2.495 6.01 2.495 5 3 C5 3.66 5 4.32 5 5 C2.525 4.01 2.525 4.01 0 3 C0 2.01 0 1.02 0 0 Z " fill="#212121" transform="translate(409,482)"/>
<path d="M0 0 C0.66 0.33 1.32 0.66 2 1 C2.59355614 3.64860427 2.74209269 6.29197322 3 9 C0 7 0 7 -0.75 4.5 C-1 2 -1 2 0 0 Z " fill="#2D2C2D" transform="translate(423,317)"/>
<path d="M0 0 C-5.2734375 3.22265625 -5.2734375 3.22265625 -7 4 C-7.66 3.67 -8.32 3.34 -9 3 C-5.83583464 -0.30799106 -4.50236011 -1.35070803 0 0 Z " fill="#252424" transform="translate(543,857)"/>
<path d="M0 0 C1.94268841 2.91403262 3.46395304 5.85808576 5 9 C3.0625 8.625 3.0625 8.625 1 8 C-0.35439668 5.29120665 -0.06501451 2.99066732 0 0 Z " fill="#2B2A2A" transform="translate(384,834)"/>
<path d="M0 0 C3.37462715 0.54723683 5.08235 1.0549 8 3 C8 3.66 8 4.32 8 5 C4.62496331 3.8141763 2.35277269 2.72426311 0 0 Z " fill="#212020" transform="translate(462,769)"/>
<path d="M0 0 C1.31223496 3.93670488 0.24296256 6.12488144 -1 10 C-3 7 -3 7 -2.75 3.875 C-2.37875 2.451875 -2.37875 2.451875 -2 1 C-1.34 0.67 -0.68 0.34 0 0 Z " fill="#2C2B2B" transform="translate(542,654)"/>
<path d="M0 0 C2 3 2 3 1.625 5.6875 C1.41875 6.450625 1.2125 7.21375 1 8 C0.01 8.33 -0.98 8.66 -2 9 C-1.34 6.03 -0.68 3.06 0 0 Z " fill="#2B2B2B" transform="translate(491,623)"/>
<path d="M0 0 C2.08954032 4.17908064 2.16552619 4.80410573 1 9 C0.01 9.33 -0.98 9.66 -2 10 C-1.34 6.7 -0.68 3.4 0 0 Z " fill="#2D2D2D" transform="translate(506,569)"/>
<path d="M0 0 C0.6875 1.625 0.6875 1.625 1 4 C-0.4375 7.25 -0.4375 7.25 -2 10 C-2.33 10 -2.66 10 -3 10 C-2.25 3.375 -2.25 3.375 0 0 Z " fill="#222223" transform="translate(408,517)"/>
<path d="M0 0 C5.75 1.75 5.75 1.75 8 4 C5.69 4 3.38 4 1 4 C0.67 2.68 0.34 1.36 0 0 Z " fill="#232324" transform="translate(348,420)"/>
<path d="M0 0 C-4.95 1.485 -4.95 1.485 -10 3 C-9 0 -9 0 -6.6875 -1.3125 C-4 -2 -4 -2 0 0 Z " fill="#2A292A" transform="translate(486,153)"/>
<path d="M0 0 C3.37503669 1.1858237 5.64722731 2.27573689 8 5 C7.01 5.33 6.02 5.66 5 6 C3.31237149 4.3545622 1.6459651 2.68711423 0 1 C0 0.67 0 0.34 0 0 Z " fill="#252424" transform="translate(527,121)"/>
<path d="M0 0 C-2.97 0.66 -5.94 1.32 -9 2 C-8.67 1.01 -8.34 0.02 -8 -1 C-4.40321889 -2.61235015 -3.79177789 -1.89588895 0 0 Z " fill="#292829" transform="translate(488,882)"/>
<path d="M0 0 C-1.0975223 2.99324263 -1.67682892 3.84610901 -4.625 5.25 C-5.40875 5.4975 -6.1925 5.745 -7 6 C-5.52522876 2.59668175 -4.14385429 0 0 0 Z " fill="#262525" transform="translate(582,831)"/>
<path d="M0 0 C1.27351308 2.54702616 0.80191925 3.4282945 0.0625 6.125 C-0.13214844 6.84945312 -0.32679688 7.57390625 -0.52734375 8.3203125 C-0.68332031 8.87460937 -0.83929687 9.42890625 -1 10 C-2.57035335 7.50590939 -3.0274945 6.29556584 -2.75 3.3125 C-2.5025 2.549375 -2.255 1.78625 -2 1 C-1.34 0.67 -0.68 0.34 0 0 Z " fill="#29292A" transform="translate(560,591)"/>
<path d="M0 0 C2.875 0.25 2.875 0.25 6 1 C7.375 3.0625 7.375 3.0625 8 5 C4.62496331 3.8141763 2.35277269 2.72426311 0 0 Z " fill="#292829" transform="translate(362,570)"/>
<path d="M0 0 C1.485 0.99 1.485 0.99 3 2 C3.1875 5.125 3.1875 5.125 3 8 C2.01 8 1.02 8 0 8 C0 5.36 0 2.72 0 0 Z " fill="#2D2C2C" transform="translate(525,442)"/>
<path d="M0 0 C1.60031344 3.20062687 0.03173691 5.72271806 -1 9 C-2.38111722 6.7252187 -3.05694702 5.49828639 -2.75 2.8125 C-2 1 -2 1 0 0 Z " fill="#292829" transform="translate(321,332)"/>
<path d="M0 0 C0.33 0.66 0.66 1.32 1 2 C0.67 2.99 0.34 3.98 0 5 C-3.5625 6.1875 -3.5625 6.1875 -7 7 C-4.66666667 4.66666667 -2.33333333 2.33333333 0 0 Z " fill="#2F2F2F" transform="translate(454,300)"/>
<path d="M0 0 C0.99 0.99 1.98 1.98 3 3 C2.01 2.67 1.02 2.34 0 2 C0 1.34 0 0.68 0 0 Z " fill="#2E2D2D" transform="translate(352,847)"/>
<path d="M0 0 C1.485 0.99 1.485 0.99 3 2 C2.01 2 1.02 2 0 2 C0 1.34 0 0.68 0 0 Z " fill="#3B3C3B" transform="translate(368,618)"/>
<path d="M0 0 C1 4 1 4 1 4 Z " fill="#3A393A" transform="translate(448,520)"/>
<path d="M0 0 C0.99 0.33 1.98 0.66 3 1 C2.01 1 1.02 1 0 1 C0 0.67 0 0.34 0 0 Z " fill="#323130" transform="translate(672,361)"/>
<path d="M0 0 C3 1 3 1 3 1 Z " fill="#383737" transform="translate(416,848)"/>
<path d="" fill="#323031" transform="translate(0,0)"/>
<path d="M0 0 C0.66 0.66 1.32 1.32 2 2 C1.34 2 0.68 2 0 2 C0 1.34 0 0.68 0 0 Z " fill="#373938" transform="translate(479,824)"/>
<path d="" fill="#373838" transform="translate(0,0)"/>
<path d="M0 0 C0.66 0.66 1.32 1.32 2 2 C1.34 2 0.68 2 0 2 C0 1.34 0 0.68 0 0 Z " fill="#363636" transform="translate(656,658)"/>
<path d="" fill="#363639" transform="translate(0,0)"/>
<path d="M0 0 C3 1 3 1 3 1 Z " fill="#383735" transform="translate(680,619)"/>
<path d="" fill="#343334" transform="translate(0,0)"/>
<path d="M0 0 C3 1 3 1 3 1 Z " fill="#302F32" transform="translate(404,440)"/>
<path d="M0 0 C0.66 0.66 1.32 1.32 2 2 C1.34 2 0.68 2 0 2 C0 1.34 0 0.68 0 0 Z " fill="#302F2F" transform="translate(268,413)"/>
<path d="M0 0 C0.33 0.66 0.66 1.32 1 2 C0.34 1.67 -0.32 1.34 -1 1 C-0.67 0.67 -0.34 0.34 0 0 Z " fill="#373636" transform="translate(553,352)"/>
<path d="M0 0 C2 1 2 1 2 1 Z " fill="#30302F" transform="translate(409,887)"/>
<path d="M0 0 C2 1 2 1 2 1 Z " fill="#2F2D2E" transform="translate(386,877)"/>
<path d="" fill="#2E2D2E" transform="translate(0,0)"/>
<path d="M0 0 C2 1 2 1 2 1 Z " fill="#363636" transform="translate(406,848)"/>
<path d="M0 0 C2 1 2 1 2 1 Z " fill="#2B2828" transform="translate(564,845)"/>
<path d="M0 0 C2 1 2 1 2 1 Z " fill="#353538" transform="translate(481,824)"/>
<path d="M0 0 C2 1 2 1 2 1 Z " fill="#393838" transform="translate(489,817)"/>
<path d="M0 0 C2 1 2 1 2 1 Z " fill="#373637" transform="translate(512,800)"/>
<path d="" fill="#353335" transform="translate(0,0)"/>
<path d="M0 0 C2 1 2 1 2 1 Z " fill="#383637" transform="translate(506,789)"/>
<path d="" fill="#363434" transform="translate(0,0)"/>
<path d="" fill="#383536" transform="translate(0,0)"/>
<path d="" fill="#3B3B3B" transform="translate(0,0)"/>
<path d="M0 0 C2 1 2 1 2 1 Z " fill="#3A3A39" transform="translate(376,581)"/>
<path d="" fill="#383638" transform="translate(0,0)"/>
<path d="" fill="#373435" transform="translate(0,0)"/>
<path d="M0 0 C2 1 2 1 2 1 Z " fill="#373736" transform="translate(360,571)"/>
<path d="" fill="#38383A" transform="translate(0,0)"/>
<path d="" fill="#363636" transform="translate(0,0)"/>
<path d="M0 0 C2 1 2 1 2 1 Z " fill="#383638" transform="translate(448,516)"/>
<path d="M0 0 C2 1 2 1 2 1 Z " fill="#383639" transform="translate(440,495)"/>
<path d="" fill="#373637" transform="translate(0,0)"/>
<path d="M0 0 C2 1 2 1 2 1 Z " fill="#343334" transform="translate(486,490)"/>
<path d="M0 0 C2 1 2 1 2 1 Z " fill="#343133" transform="translate(409,480)"/>
<path d="" fill="#373635" transform="translate(0,0)"/>
<path d="" fill="#353334" transform="translate(0,0)"/>
<path d="M0 0 C2 1 2 1 2 1 Z " fill="#333132" transform="translate(390,472)"/>
<path d="M0 0 C2 1 2 1 2 1 Z " fill="#373535" transform="translate(722,444)"/>
<path d="" fill="#383736" transform="translate(0,0)"/>
<path d="M0 0 C2 1 2 1 2 1 Z " fill="#2F3030" transform="translate(382,432)"/>
<path d="M0 0 C2 1 2 1 2 1 Z " fill="#343233" transform="translate(285,431)"/>
<path d="M0 0 C2 1 2 1 2 1 Z " fill="#302F2F" transform="translate(273,419)"/>
<path d="" fill="#363435" transform="translate(0,0)"/>
<path d="M0 0 C2 1 2 1 2 1 Z " fill="#363635" transform="translate(665,395)"/>
<path d="M0 0 C2 1 2 1 2 1 Z " fill="#363635" transform="translate(454,392)"/>
<path d="M0 0 C2 1 2 1 2 1 Z " fill="#393736" transform="translate(631,389)"/>
<path d="M0 0 C2 1 2 1 2 1 Z " fill="#313132" transform="translate(670,360)"/>
<path d="M0 0 C2 1 2 1 2 1 Z " fill="#2E2E2F" transform="translate(667,360)"/>
<path d="M0 0 C2 1 2 1 2 1 Z " fill="#353436" transform="translate(635,352)"/>
<path d="" fill="#373435" transform="translate(0,0)"/>
<path d="" fill="#333232" transform="translate(0,0)"/>
<path d="M0 0 C2 1 2 1 2 1 Z " fill="#323230" transform="translate(316,201)"/>
<path d="" fill="#363635" transform="translate(0,0)"/>
<path d="M0 0 C2 1 2 1 2 1 Z " fill="#373736" transform="translate(513,151)"/>
<path d="M0 0 C2 1 2 1 2 1 Z " fill="#393737" transform="translate(507,150)"/>
<path d="" fill="#323231" transform="translate(0,0)"/>
<path d="M0 0 C2 1 2 1 2 1 Z " fill="#302F32" transform="translate(403,128)"/>
<path d="M0 0 C2 1 2 1 2 1 Z " fill="#2F2E2E" transform="translate(510,112)"/>
<path d="" fill="#111111" transform="translate(0,0)"/>
<path d="" fill="#333233" transform="translate(0,0)"/>
<path d="" fill="#2E2D2B" transform="translate(0,0)"/>
<path d="" fill="#2F2E2E" transform="translate(0,0)"/>
<path d="" fill="#2F2D2D" transform="translate(0,0)"/>
<path d="" fill="#2F2E2E" transform="translate(0,0)"/>
<path d="" fill="#2E2E2F" transform="translate(0,0)"/>
<path d="" fill="#2E2D2D" transform="translate(0,0)"/>
<path d="" fill="#2A2727" transform="translate(0,0)"/>
<path d="" fill="#2E2C2D" transform="translate(0,0)"/>
<path d="" fill="#2E2D2D" transform="translate(0,0)"/>
<path d="" fill="#2D2E2F" transform="translate(0,0)"/>
<path d="" fill="#30302E" transform="translate(0,0)"/>
<path d="" fill="#2D2F2B" transform="translate(0,0)"/>
<path d="" fill="#2B2C2C" transform="translate(0,0)"/>
<path d="" fill="#2F2D2C" transform="translate(0,0)"/>
<path d="" fill="#2E2F2E" transform="translate(0,0)"/>
<path d="" fill="#393838" transform="translate(0,0)"/>
<path d="" fill="#383839" transform="translate(0,0)"/>
<path d="" fill="#2C2C2C" transform="translate(0,0)"/>
<path d="" fill="#3B3939" transform="translate(0,0)"/>
<path d="" fill="#313234" transform="translate(0,0)"/>
<path d="" fill="#393937" transform="translate(0,0)"/>
<path d="" fill="#2B2B2C" transform="translate(0,0)"/>
<path d="" fill="#2E302E" transform="translate(0,0)"/>
<path d="" fill="#323031" transform="translate(0,0)"/>
<path d="" fill="#393939" transform="translate(0,0)"/>
<path d="" fill="#383938" transform="translate(0,0)"/>
<path d="" fill="#373739" transform="translate(0,0)"/>
<path d="" fill="#363435" transform="translate(0,0)"/>
<path d="" fill="#38353C" transform="translate(0,0)"/>
<path d="" fill="#343333" transform="translate(0,0)"/>
<path d="" fill="#363834" transform="translate(0,0)"/>
<path d="" fill="#373838" transform="translate(0,0)"/>
<path d="" fill="#393938" transform="translate(0,0)"/>
<path d="" fill="#2C2A29" transform="translate(0,0)"/>
<path d="" fill="#322F32" transform="translate(0,0)"/>
<path d="" fill="#2C2E2B" transform="translate(0,0)"/>
<path d="" fill="#373838" transform="translate(0,0)"/>
<path d="" fill="#2E2D2D" transform="translate(0,0)"/>
<path d="" fill="#3A3836" transform="translate(0,0)"/>
<path d="" fill="#353436" transform="translate(0,0)"/>
<path d="" fill="#383736" transform="translate(0,0)"/>
<path d="" fill="#353334" transform="translate(0,0)"/>
<path d="" fill="#363538" transform="translate(0,0)"/>
<path d="" fill="#393939" transform="translate(0,0)"/>
<path d="" fill="#3B3839" transform="translate(0,0)"/>
<path d="" fill="#393738" transform="translate(0,0)"/>
<path d="" fill="#363533" transform="translate(0,0)"/>
<path d="" fill="#353634" transform="translate(0,0)"/>
<path d="" fill="#313434" transform="translate(0,0)"/>
<path d="" fill="#373636" transform="translate(0,0)"/>
<path d="" fill="#363635" transform="translate(0,0)"/>
<path d="" fill="#343538" transform="translate(0,0)"/>
<path d="" fill="#353535" transform="translate(0,0)"/>
<path d="" fill="#373535" transform="translate(0,0)"/>
<path d="" fill="#383537" transform="translate(0,0)"/>
<path d="" fill="#2E2C29" transform="translate(0,0)"/>
<path d="" fill="#3B3A3A" transform="translate(0,0)"/>
<path d="" fill="#3E3E3E" transform="translate(0,0)"/>
<path d="" fill="#383836" transform="translate(0,0)"/>
<path d="" fill="#333332" transform="translate(0,0)"/>
<path d="" fill="#3B3838" transform="translate(0,0)"/>
<path d="" fill="#393839" transform="translate(0,0)"/>
<path d="" fill="#2D2D2D" transform="translate(0,0)"/>
<path d="" fill="#383938" transform="translate(0,0)"/>
<path d="" fill="#383736" transform="translate(0,0)"/>
<path d="" fill="#383736" transform="translate(0,0)"/>
<path d="" fill="#373735" transform="translate(0,0)"/>
<path d="" fill="#363233" transform="translate(0,0)"/>
<path d="" fill="#353333" transform="translate(0,0)"/>
<path d="" fill="#313131" transform="translate(0,0)"/>
<path d="" fill="#373738" transform="translate(0,0)"/>
<path d="" fill="#343232" transform="translate(0,0)"/>
<path d="" fill="#383735" transform="translate(0,0)"/>
<path d="" fill="#2B2C2D" transform="translate(0,0)"/>
<path d="" fill="#302E30" transform="translate(0,0)"/>
<path d="" fill="#353033" transform="translate(0,0)"/>
<path d="" fill="#383535" transform="translate(0,0)"/>
<path d="" fill="#2F2D2E" transform="translate(0,0)"/>
<path d="" fill="#302E2E" transform="translate(0,0)"/>
<path d="" fill="#393939" transform="translate(0,0)"/>
<path d="" fill="#333232" transform="translate(0,0)"/>
<path d="" fill="#393738" transform="translate(0,0)"/>
<path d="" fill="#393835" transform="translate(0,0)"/>
<path d="" fill="#393836" transform="translate(0,0)"/>
<path d="" fill="#3B3A39" transform="translate(0,0)"/>
<path d="" fill="#363536" transform="translate(0,0)"/>
<path d="" fill="#323132" transform="translate(0,0)"/>
<path d="" fill="#363538" transform="translate(0,0)"/>
<path d="" fill="#393739" transform="translate(0,0)"/>
<path d="" fill="#373636" transform="translate(0,0)"/>
<path d="" fill="#383535" transform="translate(0,0)"/>
<path d="" fill="#303132" transform="translate(0,0)"/>
<path d="" fill="#303133" transform="translate(0,0)"/>
<path d="" fill="#312F31" transform="translate(0,0)"/>
<path d="" fill="#363736" transform="translate(0,0)"/>
<path d="" fill="#383636" transform="translate(0,0)"/>
<path d="" fill="#373636" transform="translate(0,0)"/>
<path d="" fill="#3B393B" transform="translate(0,0)"/>
<path d="" fill="#393A39" transform="translate(0,0)"/>
<path d="" fill="#313230" transform="translate(0,0)"/>
<path d="" fill="#373838" transform="translate(0,0)"/>
<path d="" fill="#3A3838" transform="translate(0,0)"/>
<path d="" fill="#393738" transform="translate(0,0)"/>
<path d="" fill="#353637" transform="translate(0,0)"/>
<path d="" fill="#383839" transform="translate(0,0)"/>
<path d="" fill="#383637" transform="translate(0,0)"/>
<path d="" fill="#3B3B3B" transform="translate(0,0)"/>
<path d="" fill="#383639" transform="translate(0,0)"/>
<path d="" fill="#363738" transform="translate(0,0)"/>
<path d="" fill="#313130" transform="translate(0,0)"/>
<path d="" fill="#383739" transform="translate(0,0)"/>
<path d="" fill="#3B3838" transform="translate(0,0)"/>
<path d="" fill="#393A37" transform="translate(0,0)"/>
<path d="" fill="#353335" transform="translate(0,0)"/>
<path d="" fill="#3A3A39" transform="translate(0,0)"/>
<path d="" fill="#393B3A" transform="translate(0,0)"/>
<path d="" fill="#323235" transform="translate(0,0)"/>
<path d="" fill="#3B393B" transform="translate(0,0)"/>
<path d="" fill="#393939" transform="translate(0,0)"/>
<path d="" fill="#383938" transform="translate(0,0)"/>
<path d="" fill="#373635" transform="translate(0,0)"/>
<path d="" fill="#3A3838" transform="translate(0,0)"/>
<path d="" fill="#3B3838" transform="translate(0,0)"/>
<path d="" fill="#373433" transform="translate(0,0)"/>
<path d="" fill="#3A3B39" transform="translate(0,0)"/>
<path d="" fill="#3A3B39" transform="translate(0,0)"/>
<path d="" fill="#393939" transform="translate(0,0)"/>
<path d="" fill="#3B3A38" transform="translate(0,0)"/>
<path d="" fill="#38393A" transform="translate(0,0)"/>
<path d="" fill="#353334" transform="translate(0,0)"/>
<path d="" fill="#353637" transform="translate(0,0)"/>
<path d="" fill="#393638" transform="translate(0,0)"/>
<path d="" fill="#353334" transform="translate(0,0)"/>
<path d="" fill="#363635" transform="translate(0,0)"/>
<path d="" fill="#383937" transform="translate(0,0)"/>
<path d="" fill="#363435" transform="translate(0,0)"/>
<path d="" fill="#343233" transform="translate(0,0)"/>
<path d="" fill="#373437" transform="translate(0,0)"/>
<path d="" fill="#393937" transform="translate(0,0)"/>
<path d="" fill="#373738" transform="translate(0,0)"/>
<path d="" fill="#373635" transform="translate(0,0)"/>
<path d="" fill="#373636" transform="translate(0,0)"/>
<path d="" fill="#3B393A" transform="translate(0,0)"/>
<path d="" fill="#393837" transform="translate(0,0)"/>
<path d="" fill="#2D2C2F" transform="translate(0,0)"/>
<path d="" fill="#302E2E" transform="translate(0,0)"/>
<path d="" fill="#383535" transform="translate(0,0)"/>
<path d="" fill="#393737" transform="translate(0,0)"/>
<path d="" fill="#3A3736" transform="translate(0,0)"/>
<path d="" fill="#363637" transform="translate(0,0)"/>
<path d="" fill="#373437" transform="translate(0,0)"/>
<path d="" fill="#3B3C3C" transform="translate(0,0)"/>
<path d="" fill="#3A3B39" transform="translate(0,0)"/>
<path d="" fill="#3C3C3C" transform="translate(0,0)"/>
<path d="" fill="#393839" transform="translate(0,0)"/>
<path d="" fill="#373435" transform="translate(0,0)"/>
<path d="" fill="#353133" transform="translate(0,0)"/>
<path d="" fill="#373735" transform="translate(0,0)"/>
<path d="" fill="#333133" transform="translate(0,0)"/>
<path d="" fill="#393939" transform="translate(0,0)"/>
<path d="" fill="#383435" transform="translate(0,0)"/>
<path d="" fill="#3A3637" transform="translate(0,0)"/>
<path d="" fill="#393638" transform="translate(0,0)"/>
<path d="" fill="#363534" transform="translate(0,0)"/>
<path d="" fill="#393938" transform="translate(0,0)"/>
<path d="" fill="#373737" transform="translate(0,0)"/>
<path d="" fill="#383736" transform="translate(0,0)"/>
<path d="" fill="#393637" transform="translate(0,0)"/>
<path d="" fill="#383536" transform="translate(0,0)"/>
<path d="" fill="#363636" transform="translate(0,0)"/>
<path d="" fill="#373638" transform="translate(0,0)"/>
<path d="" fill="#3A3939" transform="translate(0,0)"/>
<path d="" fill="#363736" transform="translate(0,0)"/>
<path d="" fill="#393A3A" transform="translate(0,0)"/>
<path d="" fill="#383636" transform="translate(0,0)"/>
<path d="" fill="#312F2F" transform="translate(0,0)"/>
<path d="" fill="#383535" transform="translate(0,0)"/>
<path d="" fill="#363636" transform="translate(0,0)"/>
<path d="" fill="#3B393A" transform="translate(0,0)"/>
<path d="" fill="#383537" transform="translate(0,0)"/>
<path d="" fill="#333333" transform="translate(0,0)"/>
<path d="" fill="#393838" transform="translate(0,0)"/>
<path d="" fill="#333334" transform="translate(0,0)"/>
<path d="" fill="#343334" transform="translate(0,0)"/>
<path d="" fill="#383738" transform="translate(0,0)"/>
<path d="" fill="#393938" transform="translate(0,0)"/>
<path d="" fill="#343334" transform="translate(0,0)"/>
<path d="" fill="#343434" transform="translate(0,0)"/>
<path d="" fill="#353334" transform="translate(0,0)"/>
<path d="" fill="#363535" transform="translate(0,0)"/>
<path d="" fill="#353533" transform="translate(0,0)"/>
<path d="" fill="#393737" transform="translate(0,0)"/>
<path d="" fill="#343536" transform="translate(0,0)"/>
<path d="" fill="#363533" transform="translate(0,0)"/>
<path d="" fill="#373836" transform="translate(0,0)"/>
<path d="" fill="#373536" transform="translate(0,0)"/>
<path d="" fill="#373638" transform="translate(0,0)"/>
<path d="" fill="#353433" transform="translate(0,0)"/>
<path d="" fill="#2F2F2F" transform="translate(0,0)"/>
<path d="" fill="#363536" transform="translate(0,0)"/>
<path d="" fill="#353134" transform="translate(0,0)"/>
<path d="" fill="#373535" transform="translate(0,0)"/>
<path d="" fill="#3A373B" transform="translate(0,0)"/>
<path d="" fill="#353434" transform="translate(0,0)"/>
<path d="" fill="#363534" transform="translate(0,0)"/>
<path d="" fill="#353433" transform="translate(0,0)"/>
<path d="" fill="#363736" transform="translate(0,0)"/>
<path d="" fill="#3A3939" transform="translate(0,0)"/>
<path d="" fill="#3A3A39" transform="translate(0,0)"/>
<path d="" fill="#302F2F" transform="translate(0,0)"/>
<path d="" fill="#353737" transform="translate(0,0)"/>
<path d="" fill="#3D3839" transform="translate(0,0)"/>
<path d="" fill="#303230" transform="translate(0,0)"/>
<path d="" fill="#343434" transform="translate(0,0)"/>
<path d="" fill="#3C3C3C" transform="translate(0,0)"/>
<path d="" fill="#343435" transform="translate(0,0)"/>
<path d="" fill="#353635" transform="translate(0,0)"/>
<path d="" fill="#343433" transform="translate(0,0)"/>
<path d="" fill="#363637" transform="translate(0,0)"/>
<path d="" fill="#353433" transform="translate(0,0)"/>
<path d="" fill="#38393A" transform="translate(0,0)"/>
<path d="" fill="#363635" transform="translate(0,0)"/>
<path d="" fill="#373736" transform="translate(0,0)"/>
<path d="" fill="#333333" transform="translate(0,0)"/>
<path d="" fill="#353634" transform="translate(0,0)"/>
<path d="" fill="#353435" transform="translate(0,0)"/>
<path d="" fill="#353735" transform="translate(0,0)"/>
<path d="" fill="#393A3A" transform="translate(0,0)"/>
<path d="" fill="#3A393A" transform="translate(0,0)"/>
<path d="" fill="#373635" transform="translate(0,0)"/>
<path d="" fill="#3C3939" transform="translate(0,0)"/>
<path d="" fill="#303130" transform="translate(0,0)"/>
<path d="" fill="#363535" transform="translate(0,0)"/>
<path d="" fill="#312F31" transform="translate(0,0)"/>
<path d="" fill="#373736" transform="translate(0,0)"/>
<path d="" fill="#393939" transform="translate(0,0)"/>
<path d="" fill="#3A3739" transform="translate(0,0)"/>
<path d="" fill="#353636" transform="translate(0,0)"/>
<path d="" fill="#2C2C2D" transform="translate(0,0)"/>
<path d="" fill="#3A3739" transform="translate(0,0)"/>
<path d="" fill="#363435" transform="translate(0,0)"/>
<path d="" fill="#363636" transform="translate(0,0)"/>
<path d="" fill="#363434" transform="translate(0,0)"/>
<path d="" fill="#393839" transform="translate(0,0)"/>
<path d="" fill="#403D3F" transform="translate(0,0)"/>
<path d="" fill="#383435" transform="translate(0,0)"/>
<path d="" fill="#313131" transform="translate(0,0)"/>
<path d="" fill="#2E2F30" transform="translate(0,0)"/>
<path d="" fill="#373739" transform="translate(0,0)"/>
<path d="" fill="#323032" transform="translate(0,0)"/>
<path d="" fill="#383636" transform="translate(0,0)"/>
<path d="" fill="#373736" transform="translate(0,0)"/>
<path d="" fill="#2E2F2D" transform="translate(0,0)"/>
<path d="" fill="#2D2B2A" transform="translate(0,0)"/>
<path d="" fill="#363535" transform="translate(0,0)"/>
<path d="" fill="#393737" transform="translate(0,0)"/>
<path d="" fill="#393938" transform="translate(0,0)"/>
<path d="" fill="#373738" transform="translate(0,0)"/>
<path d="" fill="#323333" transform="translate(0,0)"/>
<path d="" fill="#363435" transform="translate(0,0)"/>
<path d="" fill="#37363A" transform="translate(0,0)"/>
<path d="" fill="#393637" transform="translate(0,0)"/>
<path d="" fill="#353334" transform="translate(0,0)"/>
<path d="" fill="#322E32" transform="translate(0,0)"/>
<path d="" fill="#383838" transform="translate(0,0)"/>
<path d="" fill="#373636" transform="translate(0,0)"/>
<path d="" fill="#312E32" transform="translate(0,0)"/>
<path d="" fill="#393B3A" transform="translate(0,0)"/>
<path d="" fill="#353332" transform="translate(0,0)"/>
<path d="" fill="#323332" transform="translate(0,0)"/>
<path d="" fill="#343031" transform="translate(0,0)"/>
<path d="" fill="#373638" transform="translate(0,0)"/>
<path d="" fill="#343330" transform="translate(0,0)"/>
<path d="" fill="#383636" transform="translate(0,0)"/>
<path d="" fill="#383736" transform="translate(0,0)"/>
<path d="" fill="#363536" transform="translate(0,0)"/>
<path d="" fill="#333131" transform="translate(0,0)"/>
<path d="" fill="#343233" transform="translate(0,0)"/>
<path d="" fill="#353533" transform="translate(0,0)"/>
<path d="" fill="#363735" transform="translate(0,0)"/>
<path d="" fill="#343434" transform="translate(0,0)"/>
<path d="" fill="#363334" transform="translate(0,0)"/>
<path d="" fill="#3B3A39" transform="translate(0,0)"/>
<path d="" fill="#363534" transform="translate(0,0)"/>
<path d="" fill="#323231" transform="translate(0,0)"/>
<path d="" fill="#353636" transform="translate(0,0)"/>
<path d="" fill="#2C2B2E" transform="translate(0,0)"/>
<path d="" fill="#383836" transform="translate(0,0)"/>
<path d="" fill="#373634" transform="translate(0,0)"/>
<path d="" fill="#3A3738" transform="translate(0,0)"/>
<path d="" fill="#323433" transform="translate(0,0)"/>
<path d="" fill="#373838" transform="translate(0,0)"/>
<path d="" fill="#373836" transform="translate(0,0)"/>
<path d="" fill="#3B393A" transform="translate(0,0)"/>
<path d="" fill="#343132" transform="translate(0,0)"/>
<path d="" fill="#343535" transform="translate(0,0)"/>
<path d="" fill="#353334" transform="translate(0,0)"/>
<path d="" fill="#373436" transform="translate(0,0)"/>
<path d="" fill="#3A3737" transform="translate(0,0)"/>
<path d="" fill="#343433" transform="translate(0,0)"/>
<path d="" fill="#383636" transform="translate(0,0)"/>
<path d="" fill="#303232" transform="translate(0,0)"/>
<path d="" fill="#383639" transform="translate(0,0)"/>
<path d="" fill="#333332" transform="translate(0,0)"/>
<path d="" fill="#373536" transform="translate(0,0)"/>
<path d="" fill="#353535" transform="translate(0,0)"/>
<path d="" fill="#373535" transform="translate(0,0)"/>
<path d="" fill="#353535" transform="translate(0,0)"/>
<path d="" fill="#363335" transform="translate(0,0)"/>
<path d="" fill="#343334" transform="translate(0,0)"/>
<path d="" fill="#2E2F2E" transform="translate(0,0)"/>
<path d="" fill="#373737" transform="translate(0,0)"/>
<path d="" fill="#343334" transform="translate(0,0)"/>
<path d="" fill="#363533" transform="translate(0,0)"/>
<path d="" fill="#333435" transform="translate(0,0)"/>
<path d="" fill="#3B3A38" transform="translate(0,0)"/>
<path d="" fill="#383737" transform="translate(0,0)"/>
<path d="" fill="#333131" transform="translate(0,0)"/>
<path d="" fill="#363335" transform="translate(0,0)"/>
<path d="" fill="#343335" transform="translate(0,0)"/>
<path d="" fill="#323131" transform="translate(0,0)"/>
<path d="" fill="#2E2F2F" transform="translate(0,0)"/>
<path d="" fill="#383737" transform="translate(0,0)"/>
<path d="" fill="#323432" transform="translate(0,0)"/>
<path d="" fill="#2E2F31" transform="translate(0,0)"/>
<path d="" fill="#393838" transform="translate(0,0)"/>
<path d="" fill="#343333" transform="translate(0,0)"/>
<path d="" fill="#393936" transform="translate(0,0)"/>
<path d="" fill="#323130" transform="translate(0,0)"/>
<path d="" fill="#373436" transform="translate(0,0)"/>
<path d="" fill="#312F2F" transform="translate(0,0)"/>
<path d="" fill="#333434" transform="translate(0,0)"/>
<path d="" fill="#3A3839" transform="translate(0,0)"/>
<path d="" fill="#313030" transform="translate(0,0)"/>
<path d="" fill="#181819" transform="translate(0,0)"/>
<path d="" fill="#333134" transform="translate(0,0)"/>
<path d="" fill="#3A393A" transform="translate(0,0)"/>
<path d="" fill="#313131" transform="translate(0,0)"/>
<path d="" fill="#302E2F" transform="translate(0,0)"/>
<path d="" fill="#333232" transform="translate(0,0)"/>
<path d="" fill="#303230" transform="translate(0,0)"/>
<path d="" fill="#2F302D" transform="translate(0,0)"/>
<path d="" fill="#343031" transform="translate(0,0)"/>
<path d="" fill="#2E3130" transform="translate(0,0)"/>
<path d="" fill="#343436" transform="translate(0,0)"/>
</svg>
